<svg width="402" height="186" viewBox="0 0 402 186" fill="none" xmlns="http://www.w3.org/2000/svg">
<path d="M184.812 0.5V25.1962H150.82H150.32V25.6962V85.851H125.261V25.6962V25.1962H124.761H76.522C75.8971 25.1962 75.2615 25.2688 74.6926 25.4291C74.1296 25.5878 73.594 25.8431 73.211 26.2358C72.8113 26.6458 72.5988 27.1872 72.6814 27.8311C72.7605 28.448 73.1039 29.1124 73.7027 29.8271L73.703 29.8274L90.4718 49.8112C95.2866 55.5496 95.6711 64.5471 92.2286 72.158C88.7972 79.7445 81.6044 85.851 71.3856 85.851H0.5V61.0368H61.5518C62.5602 61.0368 63.3828 60.9414 63.9997 60.722C64.6242 60.4999 65.1074 60.1221 65.2825 59.5273C65.4485 58.9631 65.2938 58.3381 64.9879 57.7122C64.6765 57.0752 64.1684 56.3551 63.4975 55.5558L48.2582 37.399C37.3536 24.4057 46.11 0.5 66.9621 0.5H184.812Z" stroke="white"/>
<path d="M80.1071 145.891L90.2695 100.013H115.138L94.667 185.364H68.926L58.6598 139.051H57.6835L47.4173 185.364H21.6763L1.18661 100.013H25.8094L35.9718 145.872L36.9481 145.873L47.1152 100.013H68.959L79.1308 145.891L80.1071 145.891Z" stroke="white"/>
<path d="M247.01 73.5822L246.918 73.1989H246.524H214.983H214.589L214.497 73.5822L211.553 85.851H186.574L207.087 0.532778L254.717 0.500269L275.207 85.851H249.953L247.01 73.5822ZM230.751 16.6371H230.378L230.272 16.995L218.752 55.8626L218.562 56.5047H219.232H242.275H242.944L242.754 55.8626L231.235 16.995L231.129 16.6371H230.756H230.751Z" stroke="white"/>
<path d="M316.445 58.0541L316.445 58.0539C315.5 57.11 314.658 56.4157 313.917 56.0021C313.187 55.5949 312.457 55.4062 311.805 55.6628C311.148 55.9211 310.755 56.5575 310.523 57.3485C310.287 58.1499 310.181 59.2202 310.181 60.5368V85.851H285.169L285.216 0.500674L337.25 0.570814C337.25 0.570814 337.25 0.570814 337.25 0.570814C351.915 0.591751 361.05 9.07763 364.068 19.2817C367.092 29.509 363.975 41.4672 354.062 48.458L354.062 48.4581C351.534 50.2427 347.004 52.5448 344.314 53.7044L343.639 53.9952L344.157 54.5162L349.45 59.8366C349.477 59.8639 349.503 59.8909 349.53 59.9176C349.896 60.2865 350.203 60.5969 350.61 60.7843C351.054 60.9892 351.571 61.0321 352.33 61.0321H400.668V85.8463H351.367H351.234C347.809 85.8464 346.138 85.8465 344.602 85.1993C343.041 84.5412 341.59 83.1991 338.681 80.2898L316.445 58.0541ZM310.677 21.1786H310.177V21.6786V43.3148V43.8148H310.677H331.251C338.801 43.8148 343.016 38.154 343.231 32.5157C343.338 29.6962 342.448 26.8569 340.46 24.7188C338.465 22.5743 335.406 21.1786 331.26 21.1786H310.681H310.677Z" stroke="white"/>
<path d="M344.121 155.069L344.121 155.069L328.881 136.907L328.498 137.229L328.881 136.907C317.977 123.914 326.733 100.008 347.585 100.008H400.663V124.705H357.145C356.093 124.705 355.24 124.784 354.59 124.959C353.95 125.131 353.418 125.42 353.141 125.909C352.855 126.414 352.921 126.987 353.145 127.535C353.369 128.082 353.78 128.685 354.326 129.336L354.326 129.336L371.095 149.32C375.91 155.058 376.294 164.055 372.852 171.666C369.42 179.253 362.228 185.359 352.009 185.359H282.53H282.398C278.973 185.359 277.302 185.36 275.768 184.712C274.207 184.054 272.756 182.712 269.845 179.803C269.845 179.803 269.845 179.803 269.845 179.803L247.609 157.567C246.665 156.623 245.823 155.929 245.083 155.515C244.353 155.107 243.623 154.918 242.971 155.174C242.314 155.432 241.92 156.068 241.687 156.859C241.451 157.661 241.345 158.732 241.345 160.05V185.364H216.333L216.384 100.014L268.419 100.084C268.419 100.084 268.419 100.084 268.419 100.084C283.083 100.105 292.219 108.591 295.236 118.795C298.26 129.023 295.144 140.983 285.231 147.976L285.23 147.976C282.702 149.76 278.173 152.063 275.482 153.222L274.808 153.513L275.326 154.034L280.618 159.354C280.645 159.382 280.672 159.409 280.698 159.435C281.064 159.804 281.372 160.115 281.778 160.302C282.222 160.507 282.74 160.55 283.498 160.55H342.175C343.077 160.55 343.839 160.443 344.428 160.208C345.026 159.968 345.483 159.578 345.678 159.005C345.867 158.449 345.772 157.826 345.504 157.189C345.234 156.548 344.766 155.839 344.121 155.069ZM241.85 120.692H241.35V121.192V142.828V143.328H241.85H262.424C269.975 143.328 274.19 137.667 274.404 132.029C274.511 129.209 273.621 126.37 271.633 124.232C269.639 122.087 266.579 120.692 262.433 120.692H241.855H241.85Z" stroke="white"/>
<path d="M177.829 173.095L177.737 172.712H177.343H145.802H145.408L145.316 173.095L142.372 185.364H117.398L137.906 100.051L185.536 100.013L206.026 185.364H180.773L177.829 173.095ZM161.575 116.15H161.201L161.095 116.508L149.576 155.376L149.386 156.018H150.056H173.099H173.768L173.578 155.376L162.059 116.508L161.953 116.15H161.579H161.575Z" stroke="white"/>
</svg>
